<?xml version="1.0" encoding="utf-8"?>
<!-- Generator: Adobe Illustrator 16.0.0, SVG Export Plug-In . SVG Version: 6.00 Build 0)  -->
<!DOCTYPE svg PUBLIC "-//W3C//DTD SVG 1.1//EN" "http://www.w3.org/Graphics/SVG/1.1/DTD/svg11.dtd">
<svg version="1.1" id="Layer_1" xmlns="http://www.w3.org/2000/svg" xmlns:xlink="http://www.w3.org/1999/xlink" x="0px" y="0px"
	 width="195.781px" height="157.252px" viewBox="0 0 195.781 157.252" enable-background="new 0 0 195.781 157.252"
	 xml:space="preserve">
<g>
	<circle fill="#3BCBAF" cx="90.26" cy="39.061" r="39.06"/>
	<g>
		<g>
			<defs>
				<circle id="SVGID_1_" cx="90.26" cy="39.061" r="39.06"/>
			</defs>
			<clipPath id="SVGID_2_">
				<use xlink:href="#SVGID_1_"  overflow="visible"/>
			</clipPath>
			<path clip-path="url(#SVGID_2_)" fill="#37B59D" d="M130.535,40.277c0,12.84-3.225,22.743-3.225,35.598
				c-11.438,0-20.023,2.809-31.46,2.809c-0.055-0.059-2.957-2.927-3.014-2.984c-2.788-2.84-5.574-5.681-8.364-8.519
				c-2.471-2.515-5.146-4.913-7.623-7.42c-0.103-0.103-0.05-1.017-0.198-1.104c0.22-0.204,0.32,0.449,0.423,0.358
				c2.2-1.934,4.398-3.869,6.604-5.795c0.188-0.163,0.273-0.342,0.312-0.578c0.143-0.869,0.268-1.744,0.459-2.603
				c0.18-0.801,0.18-1.565-0.056-2.36c-0.231-0.785-0.454-1.594-0.514-2.404c-0.147-2.045-0.205-4.096-0.286-6.146
				c-0.011-0.227-0.087-0.384-0.245-0.54c-3.515-3.449-7.024-6.903-10.536-10.354c-0.707-0.695-1.421-1.384-2.132-2.076
				c0-0.02,0-0.039,0-0.06c0.666-0.636,1.336-1.268,1.999-1.907c1.245-1.205,2.485-2.416,3.729-3.624c0.021,0,0.04,0,0.061,0
				c0.049,0.06,0.468,0.499,0.521,0.554c2.49,2.466,4.607,4.557,7.098,7.021c0.057,0.053,0.117,0.1,0.184,0.156
				c0.116-0.098,0.221-0.186,0.394-0.331c0.148,0.177,0.295,0.349,0.44,0.524c0.311,0.378,0.72,0.594,1.176,0.768
				c2.051,0.78,4.094,1.583,6.143,2.366c0.163,0.063,0.37,0.08,0.543,0.044c1.693-0.347,3.384-0.707,5.072-1.069
				c0.152-0.033,0.309-0.086,0.442-0.165c1.272-0.731,2.546-1.468,3.813-2.208c0.126-0.074,0.245-0.172,0.346-0.277
				c2.129-2.222,4.256-4.447,6.379-6.672c0.081-0.085-0.617-0.572-0.551-0.674c0.142,0.117,0.95,0.538,1.01,0.589
				c3.261,2.964,6.521,5.93,9.782,8.894c2.616,2.375,5.236,4.748,7.855,7.119C127.176,37.26,130.47,40.234,130.535,40.277z"/>
		</g>
	</g>
	<path fill="#FFFFFF" d="M109.424,22.889c0.006-0.103,0.017-0.208,0.025-0.314c0.055-0.529,0.118-1.069-0.236-1.453l0.009-0.009
		c-0.034-0.041-0.071-0.076-0.108-0.109l-0.01,0.01c-0.032-0.034-0.065-0.066-0.104-0.097l-0.008,0.009
		c-0.396-0.342-0.935-0.257-1.461-0.187c-0.105,0.014-0.211,0.028-0.313,0.038c-0.927,0.17-2.001-0.996-3.042-0.388
		c-0.209,0.122-0.414,0.314-0.617,0.603c-0.417,0.669-0.405,1.295-0.285,1.875c0.04,0.194,0.094,0.384,0.146,0.568
		c0.188,0.681,0.318,1.359,0.616,1.907c-0.86,0.777-1.601,1.667-2.421,2.442c-0.638,0.604-1.327,1.137-2.164,1.489
		c-0.901,0.356-1.822,0.54-2.756,0.665c-0.216-0.503-0.445-1.008-0.67-1.518c0.593-1.282,1.043-2.776-0.146-3.927
		c-0.305-0.207-0.608-0.379-0.907-0.551c-0.15-0.086-0.299-0.172-0.444-0.261c-1.464-1.079-2.771-2.079-4.297-2.236l0,0
		c0,0-0.001,0-0.002,0l0,0l0,0c-1.526,0.157-2.835,1.157-4.297,2.236c-0.147,0.089-0.296,0.175-0.444,0.261
		c-0.3,0.172-0.605,0.344-0.91,0.551c-1.281,1.243-0.654,2.884-0.003,4.229c-0.196,0.445-0.396,0.887-0.585,1.327l-0.004-0.087
		c-0.985-0.125-1.96-0.312-2.914-0.688c-0.836-0.353-1.525-0.886-2.164-1.489c-0.821-0.775-1.56-1.665-2.42-2.442
		c0.298-0.547,0.429-1.226,0.616-1.907c0.054-0.184,0.105-0.374,0.146-0.568c0.12-0.581,0.132-1.206-0.284-1.875
		c-0.204-0.289-0.41-0.481-0.618-0.603c-1.042-0.608-2.115,0.558-3.042,0.388c-0.104-0.01-0.208-0.023-0.313-0.038
		c-0.527-0.071-1.065-0.155-1.461,0.187l-0.008-0.009c-0.039,0.031-0.072,0.063-0.104,0.097l-0.009-0.01
		c-0.038,0.033-0.074,0.068-0.109,0.109l0.009,0.009c-0.354,0.384-0.29,0.924-0.237,1.453c0.011,0.106,0.021,0.211,0.027,0.314
		c0.138,0.933-1.065,1.965-0.495,3.027c0.114,0.212,0.299,0.426,0.582,0.639c0.653,0.439,1.278,0.451,1.863,0.351
		c0.195-0.034,0.387-0.08,0.573-0.126c0.506-0.12,1.008-0.211,1.461-0.361c1.729,1.752,3.374,3.68,5.672,4.877
		c0.408,0.212,0.833,0.394,1.277,0.539c0.396,0.077,0.791,0.171,1.188,0.267c-0.409,1.371-0.551,2.752-0.078,4.204
		c0.137,0.666,0.304,1.327,0.502,1.984c0.102,0.34,0.213,0.679,0.33,1.016c-0.17-0.177-0.35-0.355-0.538-0.534
		c-2.121-1.81-5.396-4.323-8.169-2.158c-0.295,0.263-0.571,0.592-0.822,0.996c-0.198,0.354-0.3,0.717-0.324,1.086
		c-0.022,0.37,0.031,0.745,0.146,1.121s0.289,0.753,0.505,1.127c0.217,0.375,0.476,0.745,0.759,1.108
		c0.283,0.363,0.59,0.718,0.903,1.062c0.627,0.686,1.278,1.323,1.813,1.877c0.553,0.557,1.127,1.1,1.714,1.626
		c1.176,1.053,2.403,2.043,3.629,2.968c-0.285,0.047-0.608,0.215-0.832,0.277c-0.271,0.113-0.543,0.221-0.822,0.25
		c-0.276,0.083-0.551,0.163-0.825,0.241c-0.273,0.079-0.549,0.155-0.823,0.232c-0.55,0.153-1.102,0.301-1.658,0.451
		c-0.139,0.031-0.276,0.061-0.416,0.092c-0.155,0.022-0.313,0.034-0.473,0.04c-1.188,0.141-2.389-0.777-3.438-0.022
		c-0.724,0.521-0.393,1.37-0.311,2.186c0.012,0.116,0.02,0.233,0.016,0.346c-0.001,0.131-0.016,0.261-0.051,0.385
		c-0.559,1.267-0.043,2.646,1.244,3.268c0.188,0.13,0.359,0.271,0.514,0.424c0.155,0.153,0.293,0.316,0.415,0.493
		c0.062,0.088,0.117,0.18,0.168,0.275c0.236,0.63,0.328,1.2,1.028,1.556c0.986,0.308,1.749-0.401,2.427-0.949
		c0.075-0.056,0.151-0.112,0.228-0.167c1.06-0.77,2.117-1.45,3.342-2.01c0.326-0.192,0.652-0.397,0.97-0.613
		c0.318-0.215,0.629-0.442,0.927-0.68c0.172-0.138,0.339-0.28,0.498-0.423c0.823-0.495,1.361-1.179,1.634-1.934
		c0.054-0.151,0.099-0.306,0.133-0.461c0.503-1.744-0.668-3.193-1.446-4.416c-0.102-0.177-0.201-0.358-0.293-0.54
		c-0.522-0.759-0.721-1.982-0.213-2.679l0.007,0.001c0,0,1.952,1.343,4.676,1.382v0.004c0.021,0,0.038-0.002,0.059-0.002
		s0.042,0.002,0.062,0.002V46.59c2.725-0.039,4.678-1.382,4.678-1.382l0.006-0.002c0.509,0.697,0.312,1.92-0.213,2.679
		c-0.093,0.182-0.19,0.363-0.293,0.54c-0.779,1.221-1.949,2.671-1.446,4.416c0.034,0.156,0.079,0.31,0.132,0.46
		c0.272,0.756,0.812,1.439,1.635,1.935c0.16,0.143,0.328,0.286,0.5,0.423c0.296,0.236,0.605,0.464,0.924,0.68
		c0.319,0.216,0.646,0.421,0.973,0.613c1.224,0.559,2.282,1.24,3.342,2.01c0.075,0.055,0.151,0.111,0.226,0.167
		c0.679,0.547,1.441,1.256,2.429,0.948c0.701-0.354,0.793-0.925,1.027-1.555c0.054-0.095,0.108-0.187,0.169-0.275
		c0.121-0.177,0.261-0.341,0.415-0.493c0.155-0.153,0.327-0.294,0.515-0.424c1.286-0.621,1.803-2.001,1.244-3.268
		c-0.035-0.125-0.052-0.253-0.053-0.385c-0.002-0.114,0.004-0.229,0.018-0.346c0.081-0.816,0.413-1.666-0.311-2.186
		c-1.049-0.755-2.25,0.163-3.438,0.022c-0.159-0.006-0.317-0.018-0.476-0.04c-0.138-0.032-0.273-0.062-0.413-0.092
		c-0.557-0.15-1.107-0.298-1.657-0.451c-0.275-0.077-0.551-0.153-0.823-0.233c-0.275-0.078-0.549-0.158-0.824-0.241
		c-0.28-0.028-0.552-0.136-0.824-0.249c-0.223-0.062-0.546-0.23-0.831-0.277c1.227-0.925,2.454-1.915,3.63-2.968
		c0.587-0.527,1.16-1.069,1.715-1.626c0.534-0.554,1.187-1.191,1.812-1.876c0.314-0.343,0.62-0.699,0.903-1.062
		c0.283-0.362,0.542-0.733,0.758-1.108c0.218-0.374,0.392-0.751,0.506-1.127c0.115-0.376,0.169-0.75,0.146-1.121
		c-0.023-0.369-0.125-0.732-0.323-1.086c-0.251-0.404-0.526-0.733-0.822-0.996c-2.773-2.165-6.049,0.349-8.171,2.158
		c-0.096,0.091-0.18,0.18-0.271,0.271c0.084-0.25,0.168-0.501,0.242-0.753c0.197-0.657,0.366-1.318,0.503-1.984
		c0.479-1.468,0.326-2.866-0.094-4.251c0.331-0.079,0.661-0.155,0.992-0.22c0.443-0.146,0.868-0.327,1.275-0.539
		c2.299-1.197,3.943-3.125,5.673-4.877c0.452,0.15,0.955,0.241,1.462,0.361c0.187,0.046,0.376,0.092,0.572,0.126
		c0.585,0.1,1.21,0.088,1.862-0.351c0.282-0.213,0.468-0.427,0.582-0.639C110.489,24.854,109.286,23.821,109.424,22.889z"/>
	<g>
		<path fill="#FFFFFF" d="M10.926,130.312V118.66L0,101.845h6.914l7.042,11.396l7.042-11.396h6.872l-10.883,16.814v11.652H10.926
			L10.926,130.312z"/>
		<path fill="#FFFFFF" d="M31.712,116.101c0-8.578,6.274-14.726,14.896-14.726c8.579,0,14.853,6.146,14.853,14.726
			c0,8.578-6.273,14.724-14.853,14.724C37.986,130.823,31.712,124.678,31.712,116.101z M55.229,116.101
			c0-5.336-3.372-9.348-8.622-9.348c-5.292,0-8.664,4.012-8.664,9.348c0,5.291,3.372,9.346,8.664,9.346
			C51.856,125.444,55.229,121.392,55.229,116.101z"/>
		<path fill="#FFFFFF" d="M68.632,116.101c0-8.578,6.273-14.726,14.896-14.726c8.579,0,14.853,6.146,14.853,14.726
			c0,8.578-6.272,14.724-14.853,14.724C74.905,130.823,68.632,124.678,68.632,116.101z M92.147,116.101
			c0-5.336-3.371-9.348-8.621-9.348c-5.292,0-8.664,4.012-8.664,9.348c0,5.291,3.372,9.346,8.664,9.346
			C88.776,125.444,92.147,121.392,92.147,116.101z"/>
		<path fill="#FFFFFF" d="M106.918,130.312v-28.467h14.979c5.421,0,8.193,3.457,8.193,7.256c0,3.541-2.22,5.976-4.907,6.529
			c3.072,0.471,5.463,3.414,5.463,6.957c0,4.311-2.816,7.725-8.279,7.725H106.918z M123.903,110.166
			c0-1.749-1.281-2.985-3.328-2.985h-7.598v5.975h7.598C122.622,113.153,123.903,112.002,123.903,110.166z M124.458,121.733
			c0-1.793-1.279-3.244-3.628-3.244h-7.853v6.486h7.853C123.092,124.978,124.458,123.781,124.458,121.733z"/>
		<path fill="#FFFFFF" d="M139.483,130.312v-28.467h6.062v28.467H139.483z"/>
		<path fill="#FFFFFF" d="M154.079,116.101c0-8.793,6.616-14.726,15.194-14.726c6.229,0,9.858,3.372,11.865,6.956l-5.207,2.562
			c-1.194-2.306-3.757-4.141-6.658-4.141c-5.206,0-8.963,3.969-8.963,9.348c0,5.377,3.757,9.346,8.963,9.346
			c2.901,0,5.464-1.836,6.658-4.139l5.207,2.518c-2.007,3.542-5.636,6.999-11.865,6.999
			C160.695,130.823,154.079,124.849,154.079,116.101z"/>
	</g>
	<g>
		<path fill="#FFFFFF" d="M188.932,107.646v-4.138h-1.469v-0.351h3.324v0.351h-1.466v4.138H188.932z"/>
		<path fill="#FFFFFF" d="M195.391,107.646v-4.004l-1.636,4.004h-0.146l-1.645-4.004v4.004h-0.383v-4.487h0.572l1.527,3.735
			l1.521-3.735h0.579v4.487H195.391z"/>
	</g>
	<g enable-background="new    ">
		<path fill="#FFFFFF" d="M31.657,149.627c0-2.681,1.975-4.512,4.485-4.512c1.543,0,2.615,0.732,3.308,1.727l-0.902,0.51
			c-0.497-0.745-1.413-1.269-2.406-1.269c-1.909,0-3.361,1.451-3.361,3.544c0,2.066,1.452,3.544,3.361,3.544
			c0.994,0,1.909-0.536,2.406-1.269l0.915,0.497c-0.732,1.007-1.778,1.739-3.321,1.739
			C33.632,154.139,31.657,152.308,31.657,149.627z"/>
		<path fill="#FFFFFF" d="M40.448,150.816c0-1.83,1.203-3.308,3.125-3.308c1.922,0,3.125,1.478,3.125,3.308
			c0,1.831-1.203,3.322-3.125,3.322C41.652,154.139,40.448,152.647,40.448,150.816z M45.666,150.816
			c0-1.281-0.745-2.432-2.092-2.432c-1.347,0-2.092,1.15-2.092,2.432c0,1.295,0.746,2.446,2.092,2.446
			C44.921,153.263,45.666,152.111,45.666,150.816z"/>
		<path fill="#FFFFFF" d="M48.298,153.981v-8.723h0.98v8.723H48.298z"/>
		<path fill="#FFFFFF" d="M51.241,153.981v-8.723h0.98v8.723H51.241z"/>
		<path fill="#FFFFFF" d="M53.819,150.816c0-1.83,1.308-3.308,3.112-3.308c1.909,0,3.034,1.49,3.034,3.387v0.248h-5.1
			c0.079,1.19,0.902,2.184,2.262,2.184c0.732,0,1.452-0.287,1.962-0.811l0.471,0.641c-0.641,0.628-1.491,0.981-2.511,0.981
			C55.165,154.139,53.819,152.791,53.819,150.816z M56.918,148.319c-1.347,0-2.014,1.138-2.066,2.092h4.146
			C58.984,149.483,58.356,148.319,56.918,148.319z"/>
		<path fill="#FFFFFF" d="M61.184,150.816c0-1.869,1.268-3.308,3.151-3.308c1.151,0,1.831,0.471,2.314,1.098l-0.654,0.589
			c-0.418-0.575-0.955-0.811-1.608-0.811c-1.334,0-2.184,1.033-2.184,2.432c0,1.399,0.85,2.446,2.184,2.446
			c0.654,0,1.19-0.262,1.608-0.824l0.654,0.602c-0.484,0.628-1.164,1.099-2.314,1.099C62.452,154.139,61.184,152.687,61.184,150.816
			z"/>
		<path fill="#FFFFFF" d="M68.235,152.661v-4.133h-1.046v-0.863h1.046v-1.726h0.994v1.726h1.281v0.863h-1.281v3.923
			c0,0.471,0.209,0.812,0.627,0.812c0.288,0,0.536-0.131,0.667-0.275l0.288,0.746c-0.249,0.235-0.602,0.405-1.164,0.405
			C68.705,154.139,68.235,153.603,68.235,152.661z"/>
		<path fill="#FFFFFF" d="M71.714,146.109c0-0.366,0.301-0.667,0.667-0.667s0.654,0.301,0.654,0.667s-0.288,0.653-0.654,0.653
			S71.714,146.476,71.714,146.109z M71.885,153.981v-6.316h0.98v6.316H71.885z"/>
		<path fill="#FFFFFF" d="M76.515,153.981l-2.628-6.316h1.072l2.092,5.179l2.105-5.179h1.059l-2.628,6.316H76.515z"/>
		<path fill="#FFFFFF" d="M80.872,150.816c0-1.83,1.308-3.308,3.112-3.308c1.909,0,3.034,1.49,3.034,3.387v0.248h-5.1
			c0.079,1.19,0.902,2.184,2.262,2.184c0.732,0,1.452-0.287,1.962-0.811l0.471,0.641c-0.641,0.628-1.491,0.981-2.511,0.981
			C82.219,154.139,80.872,152.791,80.872,150.816z M83.971,148.319c-1.347,0-2.014,1.138-2.066,2.092h4.146
			C86.037,149.483,85.41,148.319,83.971,148.319z"/>
		<path fill="#FFFFFF" d="M92.031,153.981v-8.723h1.085v8.723H92.031z"/>
		<path fill="#FFFFFF" d="M99.394,153.981v-4.132c0-1.125-0.574-1.465-1.425-1.465c-0.771,0-1.491,0.471-1.87,0.98v4.616h-0.98
			v-6.316h0.98v0.916c0.445-0.536,1.308-1.072,2.262-1.072c1.308,0,2.001,0.667,2.001,2.04v4.433H99.394z"/>
		<path fill="#FFFFFF" d="M102.536,152.661v-4.133h-1.046v-0.863h1.046v-1.726h0.994v1.726h1.281v0.863h-1.281v3.923
			c0,0.471,0.209,0.812,0.628,0.812c0.287,0,0.535-0.131,0.666-0.275l0.288,0.746c-0.249,0.235-0.602,0.405-1.163,0.405
			C103.007,154.139,102.536,153.603,102.536,152.661z"/>
		<path fill="#FFFFFF" d="M105.82,150.816c0-1.83,1.308-3.308,3.112-3.308c1.909,0,3.034,1.49,3.034,3.387v0.248h-5.101
			c0.079,1.19,0.902,2.184,2.263,2.184c0.732,0,1.451-0.287,1.961-0.811l0.471,0.641c-0.641,0.628-1.49,0.981-2.51,0.981
			C107.167,154.139,105.82,152.791,105.82,150.816z M108.92,148.319c-1.348,0-2.014,1.138-2.066,2.092h4.145
			C110.985,149.483,110.357,148.319,108.92,148.319z"/>
		<path fill="#FFFFFF" d="M113.552,153.981v-8.723h0.98v8.723H113.552z"/>
		<path fill="#FFFFFF" d="M116.495,153.981v-8.723h0.98v8.723H116.495z"/>
		<path fill="#FFFFFF" d="M119.267,146.109c0-0.366,0.301-0.667,0.668-0.667c0.365,0,0.653,0.301,0.653,0.667
			s-0.288,0.653-0.653,0.653C119.568,146.763,119.267,146.476,119.267,146.109z M119.438,153.981v-6.316h0.98v6.316H119.438z"/>
		<path fill="#FFFFFF" d="M122.369,155.59l0.496-0.706c0.523,0.614,1.15,0.85,2.053,0.85c1.047,0,2.041-0.51,2.041-1.844v-0.954
			c-0.471,0.641-1.242,1.124-2.132,1.124c-1.647,0-2.812-1.229-2.812-3.269c0-2.027,1.15-3.282,2.812-3.282
			c0.85,0,1.622,0.418,2.132,1.111v-0.955h0.98v6.225c0,2.001-1.479,2.655-3.021,2.655
			C123.859,156.545,123.127,156.335,122.369,155.59z M126.959,152.164v-2.772c-0.354-0.536-1.111-1.007-1.883-1.007
			c-1.282,0-2.041,1.007-2.041,2.406c0,1.386,0.759,2.393,2.041,2.393C125.847,153.184,126.605,152.713,126.959,152.164z"/>
		<path fill="#FFFFFF" d="M129.538,150.816c0-1.83,1.308-3.308,3.112-3.308c1.909,0,3.033,1.49,3.033,3.387v0.248h-5.1
			c0.078,1.19,0.902,2.184,2.262,2.184c0.732,0,1.452-0.287,1.963-0.811l0.471,0.641c-0.642,0.628-1.491,0.981-2.512,0.981
			C130.885,154.139,129.538,152.791,129.538,150.816z M132.636,148.319c-1.347,0-2.014,1.138-2.066,2.092h4.146
			C134.703,149.483,134.076,148.319,132.636,148.319z"/>
		<path fill="#FFFFFF" d="M141.545,153.981v-4.132c0-1.125-0.574-1.465-1.425-1.465c-0.771,0-1.491,0.471-1.87,0.98v4.616h-0.98
			v-6.316h0.98v0.916c0.445-0.536,1.308-1.072,2.262-1.072c1.309,0,2.002,0.667,2.002,2.04v4.433H141.545z"/>
		<path fill="#FFFFFF" d="M144.125,150.816c0-1.869,1.269-3.308,3.151-3.308c1.151,0,1.831,0.471,2.314,1.098l-0.653,0.589
			c-0.419-0.575-0.955-0.811-1.609-0.811c-1.334,0-2.184,1.033-2.184,2.432c0,1.399,0.85,2.446,2.184,2.446
			c0.654,0,1.19-0.262,1.609-0.824l0.653,0.602c-0.483,0.628-1.163,1.099-2.314,1.099
			C145.393,154.139,144.125,152.687,144.125,150.816z"/>
		<path fill="#FFFFFF" d="M150.613,150.816c0-1.83,1.309-3.308,3.113-3.308c1.908,0,3.033,1.49,3.033,3.387v0.248h-5.1
			c0.078,1.19,0.902,2.184,2.262,2.184c0.732,0,1.451-0.287,1.962-0.811l0.471,0.641c-0.642,0.628-1.491,0.981-2.511,0.981
			C151.961,154.139,150.613,152.791,150.613,150.816z M153.713,148.319c-1.348,0-2.014,1.138-2.066,2.092h4.146
			C155.779,149.483,155.151,148.319,153.713,148.319z"/>
	</g>
</g>
</svg>
